HIERARCHY
ROOT root
{
	OFFSET 0.000000 0.000000 0.000000
	CHANNELS 6 Xposition Yposition Zposition Zrotation Yrotation Xrotation
	JOINT lhip
	{
		OFFSET 0.058581 -0.082280 -0.017664
		CHANNELS 3 Zrotation Yrotation Xrotation
		JOINT lknee
		{
			OFFSET 0.043451 -0.386469 0.008037
			CHANNELS 3 Zrotation Yrotation Xrotation
			JOINT lankle
			{
				OFFSET -0.014790 -0.426874 -0.037428
				CHANNELS 3 Zrotation Yrotation Xrotation
				JOINT ltoe
				{
					OFFSET 0.041054 -0.060286 0.122042
					CHANNELS 3 Zrotation Yrotation Xrotation
					End Site
					{
						OFFSET 0.000000 0.000000 0.000000
					}
				}
			}
		}
	}
	JOINT rhip
	{
		OFFSET -0.060310 -0.090513 -0.013543
		CHANNELS 3 Zrotation Yrotation Xrotation
		JOINT rknee
		{
			OFFSET -0.043257 -0.383688 -0.004843
			CHANNELS 3 Zrotation Yrotation Xrotation
			JOINT rankle
			{
				OFFSET 0.019056 -0.420046 -0.034562
				CHANNELS 3 Zrotation Yrotation Xrotation
				JOINT rtoe
				{
					OFFSET -0.034840 -0.062106 0.130323
					CHANNELS 3 Zrotation Yrotation Xrotation
					End Site
					{
						OFFSET 0.000000 0.000000 0.000000
					}
				}
			}
		}
	}
	JOINT lowerback
	{
		OFFSET 0.004439 0.124404 -0.038385
		CHANNELS 3 Zrotation Yrotation Xrotation
		JOINT upperback
		{
			OFFSET 0.004488 0.137956 0.026820
			CHANNELS 3 Zrotation Yrotation Xrotation
			JOINT chest
			{
				OFFSET -0.002265 0.056032 0.002855
				CHANNELS 3 Zrotation Yrotation Xrotation
				JOINT lowerneck
				{
					OFFSET -0.013390 0.211636 -0.033468
					CHANNELS 3 Zrotation Yrotation Xrotation
					JOINT upperneck
					{
						OFFSET 0.010113 0.088937 0.050410
						CHANNELS 3 Zrotation Yrotation Xrotation
						End Site
						{
							OFFSET 0.000000 0.000000 0.000000
						}
					}
				}
				JOINT lclavicle
				{
					OFFSET 0.071702 0.114000 -0.018898
					CHANNELS 3 Zrotation Yrotation Xrotation
					JOINT lshoulder
					{
						OFFSET 0.122921 0.045205 -0.019046
						CHANNELS 3 Zrotation Yrotation Xrotation
						JOINT lelbow
						{
							OFFSET 0.255332 -0.015649 -0.022946
							CHANNELS 3 Zrotation Yrotation Xrotation
							JOINT lwrist
							{
								OFFSET 0.265709 0.012698 -0.007375
								CHANNELS 3 Zrotation Yrotation Xrotation
								End Site
								{
									OFFSET 0.000000 0.000000 0.000000
								}
							}
						}
					}
				}
				JOINT rclavicle
				{
					OFFSET -0.082954 0.112472 -0.023707
					CHANNELS 3 Zrotation Yrotation Xrotation
					JOINT rshoulder
					{
						OFFSET -0.113228 0.046853 -0.008472
						CHANNELS 3 Zrotation Yrotation Xrotation
						JOINT relbow
						{
							OFFSET -0.260127 -0.014369 -0.031269
							CHANNELS 3 Zrotation Yrotation Xrotation
							JOINT rwrist
							{
								OFFSET -0.269108 0.006794 -0.006027
								CHANNELS 3 Zrotation Yrotation Xrotation
								End Site
								{
									OFFSET 0.000000 0.000000 0.000000
								}
							}
						}
					}
				}
			}
		}
	}
}
MOTION
Frames: 5
Frame Time: 0.033333
-0.374794 -1.857898 1.024544 179.623023 2.785123 86.341489 2.513497 5.475159 6.465536 -2.805691 5.867480 3.755453 4.049755 18.643553 -18.251277 0.000000 -0.000000 0.000000 -0.135662 -2.314044 0.714757 0.864559 -3.150393 13.033301 1.058116 -9.415809 -18.051787 0.000000 -0.000000 0.000000 0.516378 0.004672 1.057888 0.974289 -3.191404 8.965668 0.308370 -3.230111 -3.191785 5.085267 3.402530 -0.138817 2.984425 5.066388 9.515385 -29.333815 0.306870 5.088379 -59.270156 -3.077437 8.137961 12.341544 -23.151520 -1.481068 -3.959954 -6.236332 -2.473207 25.438996 3.907425 5.445776 57.002773 5.194218 12.570715 -11.983887 27.644249 -4.160738 5.840014 8.260140 -7.944423 
-0.376248 -1.857169 1.024258 -179.850414 2.805463 86.315377 2.455296 5.259756 6.419078 -2.879743 5.449008 3.957581 4.037802 18.683720 -18.622482 0.000000 -0.000000 0.000000 -0.187006 -2.430927 0.707161 0.794826 -3.269747 13.375774 1.171765 -9.587851 -18.286750 0.000000 -0.000000 0.000000 0.669096 -0.085376 1.415342 0.838396 -3.048724 8.292779 0.366981 -3.192363 -2.647026 5.243231 3.226087 -0.774300 2.985375 4.827563 10.293237 -28.977256 0.411263 5.136468 -59.642566 -3.312052 7.984690 12.462890 -23.384720 -1.231046 -3.917030 -6.325191 -2.715944 25.295150 3.912482 5.474127 57.337238 5.343358 12.560854 -12.170439 27.360848 -4.104971 5.801031 8.341411 -8.254238 
-0.378165 -1.856179 1.023986 -179.427422 2.785923 86.355865 2.287890 4.986986 6.349548 -2.923916 5.162097 4.104259 4.132649 18.772647 -19.047447 0.000000 -0.000000 0.000000 -0.186462 -2.409477 0.291508 0.491674 -3.468703 14.344761 1.288733 -9.805880 -18.644605 0.000000 -0.000000 0.000000 0.637517 -0.075536 1.525290 0.873387 -2.994434 8.204528 0.422623 -3.193005 -2.586072 5.257544 3.179292 -0.984966 3.016206 4.828445 10.314182 -28.798444 0.487848 5.125449 -59.822592 -3.421478 7.937473 12.568130 -23.687848 -1.259907 -3.899475 -6.336201 -2.823830 25.283729 3.961920 5.497693 57.452056 5.340639 12.536397 -12.223865 26.994146 -4.057036 5.881693 8.312713 -8.290796 
-0.381453 -1.855563 1.023230 -179.077254 2.655359 86.450845 1.942244 4.824799 6.174869 -3.020185 4.720124 4.363658 4.392775 18.973616 -19.669087 0.000000 -0.000000 0.000000 -0.133964 -2.070507 -1.286753 -0.317011 -3.704380 17.296528 1.562797 -10.280125 -19.357766 0.000000 -0.000000 0.000000 0.331731 -0.146233 1.795452 1.035808 -2.911318 8.257715 0.469952 -3.202121 -2.651140 5.359481 2.844862 -1.199056 3.074845 4.371449 10.380519 -28.569213 0.424264 4.956665 -59.956087 -3.521948 8.155252 12.723039 -23.993905 -1.720878 -3.770945 -6.339755 -2.737730 25.465149 4.185505 5.330635 57.426965 5.194509 12.602224 -12.309076 26.444419 -4.215217 6.001158 8.323949 -8.109800 
-0.383880 -1.855037 1.022371 -178.949577 2.477299 86.484045 1.678289 4.815154 6.209373 -3.193856 4.472043 4.360640 4.670102 19.141920 -20.020877 0.000000 -0.000000 0.000000 -0.186863 -1.722947 -2.788045 -0.929087 -3.849057 20.160135 1.821190 -10.661683 -19.845960 0.000000 -0.000000 0.000000 -0.032155 -0.290462 2.065785 1.165946 -2.850919 8.249631 0.484118 -3.210080 -2.666745 5.466132 2.669060 -1.343150 3.067439 4.051323 10.388686 -28.384356 0.329182 4.796401 -60.002201 -3.546029 8.369188 12.772615 -24.090087 -2.086932 -3.681834 -6.356335 -2.631287 25.618947 4.322215 5.155063 57.420994 5.100314 12.700770 -12.378235 26.116804 -4.391731 6.101464 8.381520 -7.995781 
